<svg xmlns="http://www.w3.org/2000/svg" id="Layer_1" x="0" y="0" version="1.1" viewBox="0 0 96 96" xml:space="preserve">
  <g id="XMLID_1_">
    <circle id="XMLID_3_" cx="74" cy="77.3" r="3.3" class="st0"/>
    <circle id="XMLID_4_" cx="22" cy="77.3" r="3.3" class="st0"/>
    <path id="XMLID_9_" d="M15.5 41.5v13c0 3.6 2.9 6.5 6.5 6.5h22.8v13H28.5v6.5h39V74H51.3V61H74c3.6 0 6.5-2.9 6.5-6.5v-13h-65zm26 13H25.3V48h16.3v6.5zm16.3 0c-1.8 0-3.3-1.5-3.3-3.3 0-1.8 1.5-3.3 3.3-3.3s3.3 1.5 3.3 3.3c-.1 1.8-1.6 3.3-3.3 3.3zm9.7 0c-1.8 0-3.3-1.5-3.3-3.3 0-1.8 1.5-3.3 3.3-3.3s3.3 1.5 3.3 3.3c0 1.8-1.5 3.3-3.3 3.3z" class="st0"/>
    <path id="XMLID_14_" d="M80.5 35V22c0-3.6-2.9-6.5-6.5-6.5H22c-3.6 0-6.5 2.9-6.5 6.5v13h65zm-13-13c1.8 0 3.3 1.5 3.3 3.3 0 1.8-1.5 3.3-3.3 3.3s-3.3-1.5-3.3-3.3c.1-1.8 1.5-3.3 3.3-3.3zm-9.7 0c1.8 0 3.3 1.5 3.3 3.3 0 1.8-1.5 3.3-3.3 3.3s-3.3-1.5-3.3-3.3c0-1.8 1.5-3.3 3.3-3.3zm-32.5 0h16.3v6.5H25.3V22z" class="st0"/>
  </g>
</svg>
